{
  "accessors": [
    {
      "bufferView": 3,
      "componentType": 5126,
      "count": 1622,
      "max": [
        41.451480865478516,
        54.362239837646484,
        13.103119850158691
      ],
      "min": [
        -24.92255973815918,
        -54.362239837646484,
        -13.103119850158691
      ],
      "type": "VEC3"
    },
    {
      "bufferView": 3,
      "byteOffset": 19464,
      "componentType": 5126,
      "count": 1622,
      "max": [
        0.9996188282966614,
        0.9999414086341858,
        0.9993217587471008
      ],
      "min": [
        -0.9968400001525879,
        -0.9860108494758606,
        -0.9998690485954285
      ],
      "type": "VEC3"
    },
    {
      "bufferView": 2,
      "componentType": 5126,
      "count": 1622,
      "max": [
        1.0,
        1.8721799850463867
      ],
      "min": [
        0.0,
        -0.7202399969100952
      ],
      "type": "VEC2"
    },
    {
      "bufferView": 1,
      "componentType": 5125,
      "count": 2424,
      "type": "SCALAR"
    },
    {
      "bufferView": 5,
      "componentType": 5126,
      "count": 21,
      "max": [
        1.0,
        0.10389301925897598,
        0.03183872997760773,
        0.0,
        0.05632428824901581,
        1.0,
        0.005849139764904976,
        0.0,
        0.009245609864592552,
        0.015656189993023872,
        1.0,
        0.0,
        2.2893500328063965,
        6.941150188446045,
        0.9057400226593018,
        1.0
      ],
      "min": [
        -0.1209709569811821,
        -0.056301299482584,
        -0.017131179571151733,
        0.0,
        -0.10822603106498718,
        -0.12028852105140686,
        -0.07241971045732498,
        0.0,
        -0.006185519974678755,
        -0.07427705824375153,
        -0.11998239159584045,
        0.0,
        -1.7995599508285522,
        -4.670650005340576,
        -2.83063006401062,
        1.0
      ],
      "type": "MAT4"
    },
    {
      "bufferView": 0,
      "componentType": 5123,
      "count": 1622,
      "type": "VEC4"
    },
    {
      "bufferView": 4,
      "componentType": 5126,
      "count": 1622,
      "max": [
        1.0,
        0.49609535932540894,
        0.22766026854515076,
        0.1091025099158287
      ],
      "min": [
        0.4056755304336548,
        0.0,
        0.0,
        0.0
      ],
      "type": "VEC4"
    }
  ],
  "asset": {
    "extras": {
      "author": "Janosch (https://sketchfab.com/JanoschABR)",
      "license": "CC-BY-4.0 (http://creativecommons.org/licenses/by/4.0/)",
      "source": "https://sketchfab.com/3d-models/rigged-lowpoly-hand-4a4a1ee282394250baba501a0d4ff0fc",
      "title": "Rigged Lowpoly Hand"
    },
    "generator": "Sketchfab-12.67.0",
    "version": "2.0"
  },
  "bufferViews": [
    {
      "buffer": 0,
      "byteLength": 12976,
      "byteStride": 8,
      "name": "shortBufferViews",
      "target": 34962
    },
    {
      "buffer": 0,
      "byteLength": 9696,
      "byteOffset": 12976,
      "name": "floatBufferViews",
      "target": 34963
    },
    {
      "buffer": 0,
      "byteLength": 12976,
      "byteOffset": 22672,
      "byteStride": 8,
      "name": "floatBufferViews",
      "target": 34962
    },
    {
      "buffer": 0,
      "byteLength": 38928,
      "byteOffset": 35648,
      "byteStride": 12,
      "name": "floatBufferViews",
      "target": 34962
    },
    {
      "buffer": 0,
      "byteLength": 25952,
      "byteOffset": 74576,
      "byteStride": 16,
      "name": "floatBufferViews",
      "target": 34962
    },
    {
      "buffer": 0,
      "byteLength": 1344,
      "byteOffset": 100528,
      "name": "floatBufferViews"
    }
  ],
  "buffers": [
    {
      "byteLength": 101872,
      "uri": "model.bin"
    }
  ],
  "materials": [
    {
      "doubleSided": true,
      "name": "Material___46",
      "pbrMetallicRoughness": {
        "baseColorFactor": [
          0.5879999995,
          0.5879999995,
          0.5879999995,
          1.0
        ],
        "metallicFactor": 0.0,
        "roughnessFactor": 0.6
      }
    }
  ],
  "meshes": [
    {
      "name": "mesh",
      "primitives": [
        {
          "attributes": {
            "JOINTS_0": 5,
            "NORMAL": 1,
            "POSITION": 0,
            "TEXCOORD_0": 2,
            "WEIGHTS_0": 6
          },
          "indices": 3,
          "material": 0,
          "mode": 4
        }
      ]
    }
  ],
  "nodes": [
    {
      "children": [
        1
      ],
      "matrix": [
        -2.6198031610288777e-05,
        -0.031240282583727685,
        -6.93673620405015e-18,
        0.0,
        0.0,
        6.9367386848212215e-18,
        -0.031240293756127357,
        0.0,
        0.031240282583727685,
        -2.6198031610288777e-05,
        -5.817131578720053e-21,
        0.0,
        -2.1038615703582764,
        2.207556962966919,
        4.901761136914915e-16,
        1.0
      ],
      "name": "Sketchfab_model"
    },
    {
      "children": [
        2
      ],
      "name": "Root"
    },
    {
      "children": [
        3,
        25,
        24
      ],
      "name": "Armature"
    },
    {
      "children": [
        4
      ],
      "name": "Armature_rootJoint"
    },
    {
      "children": [
        5,
        8,
        12,
        16,
        20
      ],
      "name": "Bone_Armature",
      "rotation": [
        0.9602100253105164,
        0.0,
        0.0,
        0.2792789041996002
      ],
      "scale": [
        1.0,
        1.0000090599060059,
        0.9999990463256836
      ],
      "translation": [
        0.0,
        7.0,
        0.0
      ]
    },
    {
      "children": [
        6
      ],
      "name": "Bone.001_Armature",
      "rotation": [
        0.5241705179214478,
        0.8325207233428955,
        0.17468826472759247,
        0.04047943279147148
      ],
      "scale": [
        1.0000039339065552,
        0.9999993443489075,
        0.9999939203262329
      ],
      "translation": [
        0.0,
        5.042389869689941,
        0.0
      ]
    },
    {
      "children": [
        7
      ],
      "name": "Bone.002_Armature",
      "rotation": [
        -0.4021405875682831,
        0.3933727443218231,
        -0.41173121333122253,
        0.7169506549835205
      ],
      "scale": [
        0.9999959468841553,
        1.000002384185791,
        0.9999937415122986
      ],
      "translation": [
        0.0,
        2.3293099403381348,
        0.0
      ]
    },
    {
      "name": "Bone.003_Armature",
      "rotation": [
        -0.06512598693370819,
        -0.1698591709136963,
        -0.5476014614105225,
        0.8167245984077454
      ],
      "scale": [
        0.999994158744812,
        0.9999958872795105,
        0.9999974370002747
      ],
      "translation": [
        0.0,
        2.334239959716797,
        0.0
      ]
    },
    {
      "children": [
        9
      ],
      "name": "Bone.004_Armature",
      "rotation": [
        0.19697807729244232,
        0.9792693257331848,
        0.04417828470468521,
        -0.01671898178756237
      ],
      "scale": [
        0.9999982118606567,
        1.000006079673767,
        1.0000025033950806
      ],
      "translation": [
        0.0,
        5.042389869689941,
        0.0
      ]
    },
    {
      "children": [
        10
      ],
      "name": "Bone.005_Armature",
      "rotation": [
        -0.15063835680484772,
        0.01145867258310318,
        -0.10148470103740692,
        0.9832993745803833
      ],
      "scale": [
        0.9999992847442627,
        1.0000039339065552,
        0.9999963045120239
      ],
      "translation": [
        0.0,
        4.254209995269775,
        0.0
      ]
    },
    {
      "children": [
        11
      ],
      "name": "Bone.006_Armature",
      "rotation": [
        -0.07924845069646835,
        0.026287676766514778,
        -0.07338210940361023,
        0.9938026666641235
      ],
      "scale": [
        1.0000027418136597,
        0.999997615814209,
        1.0000050067901611
      ],
      "translation": [
        0.0,
        1.7555899620056152,
        0.0
      ]
    },
    {
      "name": "Bone.007_Armature",
      "rotation": [
        -0.07852092385292053,
        -0.012957231141626835,
        0.023593861609697342,
        0.9965490102767944
      ],
      "scale": [
        0.9999991059303284,
        1.0000046491622925,
        0.9999966025352478
      ],
      "translation": [
        0.0,
        1.5334700345993042,
        0.0
      ]
    },
    {
      "children": [
        13
      ],
      "name": "Bone.008_Armature",
      "rotation": [
        0.05257735028862953,
        0.997242271900177,
        0.05221899226307869,
        -0.004081246443092823
      ],
      "scale": [
        1.0000038146972656,
        1.000001072883606,
        0.9999966621398926
      ],
      "translation": [
        0.0,
        5.042389869689941,
        0.0
      ]
    },
    {
      "children": [
        14
      ],
      "name": "Bone.009_Armature",
      "rotation": [
        -0.6719654202461243,
        0.051602523773908615,
        -0.009605181403458118,
        0.7387201189994812
      ],
      "scale": [
        0.9999990463256836,
        1.000000238418579,
        1.0000035762786865
      ],
      "translation": [
        0.0,
        4.482860088348389,
        0.0
      ]
    },
    {
      "children": [
        15
      ],
      "name": "Bone.010_Armature",
      "rotation": [
        -0.6348470449447632,
        0.04779105260968208,
        -0.06453357636928558,
        0.7684534192085266
      ],
      "scale": [
        0.9999946355819702,
        1.0000020265579224,
        0.9999988675117493
      ],
      "translation": [
        0.0,
        1.91225004196167,
        0.0
      ]
    },
    {
      "name": "Bone.011_Armature",
      "rotation": [
        -0.10271703451871872,
        -0.08065319061279297,
        0.0012255505425855517,
        0.9914346933364868
      ],
      "scale": [
        1.000004768371582,
        1.0000064373016357,
        0.9999977946281433
      ],
      "translation": [
        0.0,
        1.3402099609375,
        0.0
      ]
    },
    {
      "children": [
        17
      ],
      "name": "Bone.012_Armature",
      "rotation": [
        -0.08405566215515137,
        0.9955916404724121,
        0.041274260729551315,
        -0.005330945365130901
      ],
      "scale": [
        0.9999957084655762,
        0.9999978542327881,
        1.000005841255188
      ],
      "translation": [
        0.0,
        5.042389869689941,
        0.0
      ]
    },
    {
      "children": [
        18
      ],
      "name": "Bone.013_Armature",
      "rotation": [
        -0.7243876457214355,
        -0.0829373374581337,
        0.01571086049079895,
        0.6842055320739746
      ],
      "scale": [
        1.0000028610229492,
        1.0000044107437134,
        0.999993622303009
      ],
      "translation": [
        0.0,
        4.514309883117676,
        0.0
      ]
    },
    {
      "children": [
        19
      ],
      "name": "Bone.014_Armature",
      "rotation": [
        -0.48231613636016846,
        -0.031153369694948196,
        0.03518472984433174,
        0.8747357726097107
      ],
      "scale": [
        0.999995231628418,
        1.000006914138794,
        0.9999989867210388
      ],
      "translation": [
        0.0,
        1.9105199575424194,
        0.0
      ]
    },
    {
      "name": "Bone.015_Armature",
      "rotation": [
        -0.4768178462982178,
        0.011334563605487347,
        -0.017656365409493446,
        0.8787516951560974
      ],
      "scale": [
        1.0000017881393433,
        1.0000048875808716,
        0.9999963045120239
      ],
      "translation": [
        0.0,
        0.9590200185775757,
        0.0
      ]
    },
    {
      "children": [
        21
      ],
      "name": "Bone.016_Armature",
      "rotation": [
        -0.23950722813606262,
        0.9681241512298584,
        0.07250098884105682,
        0.010747662745416164
      ],
      "scale": [
        1.000002384185791,
        0.9999952912330627,
        1.000004529953003
      ],
      "translation": [
        0.0,
        5.042389869689941,
        0.0
      ]
    },
    {
      "children": [
        22
      ],
      "name": "Bone.017_Armature",
      "rotation": [
        -0.521043598651886,
        -0.16423316299915314,
        0.04175800085067749,
        0.8365388512611389
      ],
      "scale": [
        1.0000026226043701,
        0.999996542930603,
        0.9999999403953552
      ],
      "translation": [
        0.0,
        4.397540092468262,
        0.0
      ]
    },
    {
      "children": [
        23
      ],
      "name": "Bone.018_Armature",
      "rotation": [
        -0.6518643498420715,
        -0.15947219729423523,
        -0.026914317160844803,
        0.7408894300460815
      ],
      "scale": [
        1.0000035762786865,
        0.999992847442627,
        0.9999972581863403
      ],
      "translation": [
        0.0,
        1.281980037689209,
        0.0
      ]
    },
    {
      "name": "Bone.019_Armature",
      "rotation": [
        -0.49067580699920654,
        -0.08385799825191498,
        -0.09734860807657242,
        0.8618168830871582
      ],
      "scale": [
        0.9999949932098389,
        1.000003457069397,
        0.9999980330467224
      ],
      "translation": [
        0.0,
        0.9714900255203247,
        0.0
      ]
    },
    {
      "matrix": [
        0.12100000000000001,
        0.0,
        0.0,
        0.0,
        0.0,
        0.12100000000000001,
        0.0,
        0.0,
        0.0,
        0.0,
        0.12100000000000001,
        0.0,
        0.0,
        0.0,
        0.0,
        1.0
      ],
      "name": "mesh"
    },
    {
      "mesh": 0,
      "name": "mesh_0",
      "skin": 0
    }
  ],
  "scene": 0,
  "scenes": [
    {
      "name": "Sketchfab_Scene",
      "nodes": [
        0
      ]
    }
  ],
  "skins": [
    {
      "inverseBindMatrices": 4,
      "joints": [
        3,
        4,
        5,
        6,
        7,
        8,
        9,
        10,
        11,
        12,
        13,
        14,
        15,
        16,
        17,
        18,
        19,
        20,
        21,
        22,
        23
      ],
      "skeleton": 3
    }
  ]
}
